<?xml version="1.0" encoding="UTF-8" standalone="no"?>
<!-- Created with Inkscape (http://www.inkscape.org/) -->

<svg
   version="1.1"
   id="svg1"
   width="640"
   height="640"
   viewBox="0 0 640 640"
   sodipodi:docname="favicon.svg"
   inkscape:version="1.4.2 (2aeb623e1d, 2025-05-12)"
   xmlns:inkscape="http://www.inkscape.org/namespaces/inkscape"
   xmlns:sodipodi="http://sodipodi.sourceforge.net/DTD/sodipodi-0.dtd"
   xmlns="http://www.w3.org/2000/svg"
   xmlns:svg="http://www.w3.org/2000/svg"
   xmlns:rdf="http://www.w3.org/1999/02/22-rdf-syntax-ns#"
   xmlns:cc="http://creativecommons.org/ns#"
   xmlns:dc="http://purl.org/dc/elements/1.1/">
  <title
     id="title1">Main JS Icon</title>
  <defs
     id="defs1">
    <filter
       style="color-interpolation-filters:sRGB"
       inkscape:label="Invert"
       id="filter6"
       x="0"
       y="0"
       width="1"
       height="1">
      <feColorMatrix
         type="hueRotate"
         values="180"
         result="color1"
         id="feColorMatrix5" />
      <feColorMatrix
         values="-1 0 0 0 1 0 -1 0 0 1 0 0 -1 0 1 0.21 0.72 0.07 0 0 "
         result="color2"
         id="feColorMatrix6" />
    </filter>
  </defs>
  <sodipodi:namedview
     id="namedview1"
     pagecolor="#ffffff"
     bordercolor="#000000"
     borderopacity="0.25"
     inkscape:showpageshadow="2"
     inkscape:pageopacity="0.0"
     inkscape:pagecheckerboard="0"
     inkscape:deskcolor="#d1d1d1"
     inkscape:zoom="0.99"
     inkscape:cx="320.70707"
     inkscape:cy="265.15152"
     inkscape:window-width="1920"
     inkscape:window-height="1016"
     inkscape:window-x="0"
     inkscape:window-y="0"
     inkscape:window-maximized="1"
     inkscape:current-layer="g1" />
  <g
     inkscape:groupmode="layer"
     inkscape:label="Image"
     id="g1">
    <path
       style="mix-blend-mode:exclusion;fill:#ffffff;fill-opacity:1;stroke:none;filter:url(#filter6)"
       d="M 264,222.42517 C 234.43541,226.21384 242,258.42563 242,281 v 116 c 0,19.02902 2.61555,40.2196 -0.43982,59 -3.46495,21.29791 -33.26178,3.39713 -39.04166,25 -5.20864,19.46783 4.76033,32.267 24.48148,31.74075 C 246.08757,512.23138 272.17722,507.19559 283.45523,490 295.59711,471.48727 293,446.18701 293,425 V 296 c 0,-24.38544 9.85648,-78.55423 -29,-73.57483 m 125,2.00308 C 370.46732,227.08319 351.65604,237.15198 341.10495,253 324.68976,277.65607 327.853,326.119 352,344.47453 373.43091,360.7654 400.42514,360 426,360 c 8.94394,0 20.4101,-1.89023 29,0.804 12.90973,4.04915 14.72968,23.27339 10.53165,34.196 -7.23572,18.82626 -40.33536,12 -56.53165,12 -7.41763,0 -16.14243,0.65936 -21.78705,-5.13348 -9.60199,-9.85416 -1.49029,-25.6531 -14.2168,-33.89661 -9.01046,-5.83649 -26.2319,-5.6263 -34.98071,0.67902 -7.53821,5.43283 -7.76919,14.88737 -7.17053,23.35107 1.2027,17.00281 5.11743,32.15607 19.15509,43.33411 C 372.93765,453.59912 399.21609,452 427,452 c 13.18427,0 27.0119,0.99319 40,-1.66589 14.52417,-2.97358 29.91458,-10.3501 39.10031,-22.33796 20.18503,-26.34252 17.18521,-77.9396 -10.10031,-98.23535 -9.31885,-6.93161 -22.3223,-13.33247 -34,-14.58719 -21.51819,-2.31204 -46.06888,4.51305 -67,-1.74229 C 382.51865,309.70122 380.61752,291.55037 384.24924,281 390.69873,262.26385 423.44559,269 439,269 c 7.02863,0 15.10681,-0.85866 20.67053,4.39352 10.10233,9.53667 1.93543,25.42707 15.33023,33.60108 8.59662,5.24599 24.60215,4.34979 32.98459,-0.9892 C 515.77802,301.04207 516.01331,293.28554 516,285 515.97229,267.76799 509.72101,252.77512 497,241.09335 476.28519,222.07086 448.95062,224 423,224 c -11.12476,0 -22.97833,-1.15067 -34,0.42825 M 106,420 77.219139,363 65.808647,339 76.24691,317 105,259 c -14.664719,0 -19.388748,7.89046 -29.039352,18 -12.533455,13.12949 -24.334824,26.97849 -36.974537,40 -4.364918,4.49677 -18.55477,15.59511 -18.640433,22 -0.08939,6.68362 14.040263,17.17706 18.229941,22 11.781269,13.56198 23.948639,27.06427 36.413578,40 C 85.692696,412.10776 89.933113,420 106,420 m 435,-161 29.24689,58 10.47839,22.57562 L 570.24689,361 541,420 c 14.29999,0 18.51257,-7.21167 28.01392,-17 12.97265,-13.36452 24.99951,-27.63547 37.97216,-41 4.50531,-4.64139 19.09595,-16.19754 18.70758,-23 -0.39465,-6.91273 -13.95587,-16.94994 -18.40814,-22 -12.50036,-14.17873 -25.27105,-28.25568 -38.25,-42 -4.44305,-4.70508 -9.1933,-12.83505 -15.32104,-15.39661 C 550.0954,258.09055 544.86029,259 541,259 M 162,382.46451 c -46.75458,4.32004 -38.70524,74.01803 8,68.35107 41.70302,-5.06 33.73619,-72.20743 -8,-68.35107 z"
       id="path1" />
  </g>
  <metadata
     id="metadata1">
    <rdf:RDF>
      <cc:Work
         rdf:about="">
        <dc:title>Main JS Icon</dc:title>
        <cc:license
           rdf:resource="http://creativecommons.org/licenses/by-sa/4.0/" />
        <dc:creator>
          <cc:Agent>
            <dc:title>Andy Futcher</dc:title>
          </cc:Agent>
        </dc:creator>
      </cc:Work>
      <cc:License
         rdf:about="http://creativecommons.org/licenses/by-sa/4.0/">
        <cc:permits
           rdf:resource="http://creativecommons.org/ns#Reproduction" />
        <cc:permits
           rdf:resource="http://creativecommons.org/ns#Distribution" />
        <cc:requires
           rdf:resource="http://creativecommons.org/ns#Notice" />
        <cc:requires
           rdf:resource="http://creativecommons.org/ns#Attribution" />
        <cc:permits
           rdf:resource="http://creativecommons.org/ns#DerivativeWorks" />
        <cc:requires
           rdf:resource="http://creativecommons.org/ns#ShareAlike" />
      </cc:License>
    </rdf:RDF>
  </metadata>
</svg>
